<?xml version="1.0" encoding="utf-8"?>
<!-- Generator: Adobe Illustrator 16.0.0, SVG Export Plug-In . SVG Version: 6.00 Build 0)  -->
<!DOCTYPE svg PUBLIC "-//W3C//DTD SVG 1.1//EN" "http://www.w3.org/Graphics/SVG/1.1/DTD/svg11.dtd">
<svg version="1.1" id="Layer_1" xmlns="http://www.w3.org/2000/svg" xmlns:xlink="http://www.w3.org/1999/xlink" x="0px" y="0px"
	 width="16px" height="16px" viewBox="0 0 16 16" enable-background="new 0 0 16 16" xml:space="preserve">
<path fill="#FFFFFF" d="M3.68,7.438c0.561-0.487,1.881-0.974,1.936-0.996C5.66,6.42,5.726,6.431,5.77,6.464S5.836,6.54,5.825,6.593
	l-0.758,5.463c-0.011,0.044-0.033,0.077-0.077,0.098c-0.044,0.021-0.088,0.012-0.132-0.011c0,0-0.066-0.032-0.166-0.076
	C4.23,11.884,3.054,11.55,2.24,12.521c-0.032,0.044-0.098,0.054-0.153,0.044H2.075c-0.055-0.021-0.087-0.064-0.099-0.118
	C1.701,9.807,3.12,7.935,3.68,7.438"/>
<path fill="#FFFFFF" d="M8.585,13.637c-0.021-0.032-0.055-0.065-0.099-0.076c-0.352-0.076-0.923-0.228-1.671-0.52
	c-0.737-0.292-1.264-0.584-1.562-0.768c-0.033-0.021-0.088-0.032-0.121-0.021c-0.044,0.01-0.077,0.043-0.088,0.076l-0.274,0.67
	c-0.022,0.065,0,0.13,0.066,0.173c0.033,0.022,0.869,0.499,1.616,0.801c0.748,0.304,1.682,0.53,1.715,0.542
	c0.066,0.021,0.143-0.012,0.165-0.077l0.275-0.67C8.618,13.712,8.618,13.67,8.585,13.637"/>
<g>
	<g>
		<g>
			<polygon id="SVGID_3_" fill="#FFFFFF" points="5.105,12.151 8.67,13.577 8.463,14.079 4.898,12.653 			"/>
		</g>
		<g>
			<g>
				<defs>
					<polygon id="SVGID_1_" points="5.105,12.151 8.67,13.577 8.463,14.079 4.898,12.653 					"/>
				</defs>
				<clipPath id="SVGID_2_">
					<use xlink:href="#SVGID_1_"  overflow="visible"/>
				</clipPath>
				<path clip-path="url(#SVGID_2_)" fill="#FFFFFF" d="M8.607,13.593c-0.022-0.032-0.055-0.064-0.099-0.075
					c-0.353-0.076-0.923-0.227-1.672-0.52C6.1,12.707,5.572,12.414,5.275,12.23c-0.033-0.022-0.088-0.033-0.121-0.022
					c-0.044,0.012-0.077,0.044-0.088,0.076l-0.154,0.368C4.923,12.619,4.956,12.587,5,12.575c0.044-0.01,0.088,0,0.122,0.023
					c0.308,0.194,0.824,0.476,1.562,0.778c0.736,0.293,1.319,0.443,1.671,0.52c0.044,0.012,0.077,0.032,0.099,0.075
					c0.022,0.033,0.022,0.076,0.011,0.118l0.154-0.366C8.629,13.67,8.629,13.637,8.607,13.593"/>
			</g>
		</g>
	</g>
</g>
<path fill="#FFFFFF" d="M13.006,11.171c-0.056-0.737-0.66-1.992-0.682-2.046c-0.022-0.043-0.065-0.075-0.122-0.086
	c-0.054-0.012-0.109,0.011-0.131,0.054l-3.333,4.436c-0.022,0.032-0.033,0.076-0.01,0.12c0.021,0.043,0.054,0.075,0.098,0.086
	c0,0,0.067,0.021,0.176,0.063c0.461,0.185,1.539,0.758,1.44,2.014c0,0.054,0.033,0.107,0.088,0.14h0.011
	c0.055,0.022,0.11,0.012,0.154-0.021C12.753,14.221,13.061,11.916,13.006,11.171"/>
<g>
	<g>
		<path fill="#FFFFFF" d="M12.202,0.005C11.521-0.266,7.431,1.79,5.88,5.534c-1.496,3.613-1.22,6.437-1.22,6.458
			c0,0.032,0.022,0.075,0.055,0.098c0.022,0.021,0.671,0.541,2.045,1.092c1.375,0.553,2.211,0.616,2.244,0.616
			c0.045,0,0.077-0.01,0.109-0.031c0.023-0.021,2.21-1.851,3.706-5.475C14.358,4.56,12.884,0.275,12.202,0.005z M9.278,9.319
			C9.112,9.71,8.629,9.894,8.189,9.71C7.75,9.536,7.519,9.071,7.683,8.682c0.165-0.39,0.649-0.562,1.089-0.39
			C9.223,8.465,9.442,8.93,9.278,9.319z M10.928,6.334c-0.231,0.562-0.936,0.811-1.562,0.562C8.739,6.647,8.409,5.977,8.64,5.414
			c0.231-0.562,0.936-0.811,1.562-0.562C10.828,5.101,11.158,5.771,10.928,6.334z"/>
	</g>
</g>
</svg>
