<?xml version="1.0" encoding="utf-8"?>
<!-- Generator: Adobe Illustrator 16.0.0, SVG Export Plug-In . SVG Version: 6.00 Build 0)  -->
<!DOCTYPE svg PUBLIC "-//W3C//DTD SVG 1.1//EN" "http://www.w3.org/Graphics/SVG/1.1/DTD/svg11.dtd">
<svg version="1.1" id="Layer_1" xmlns="http://www.w3.org/2000/svg" xmlns:xlink="http://www.w3.org/1999/xlink" x="0px" y="0px"
	 width="183px" height="32px" viewBox="0 0 183 32" enable-background="new 0 0 183 32" xml:space="preserve">
<g id="kwTsvJ_1_">
	<path fill="#E57225" d="M5.357,14.712c1.054-0.934,3.552-1.863,3.658-1.902c0.092-0.034,0.199-0.017,0.282,0.044
		c0.082,0.06,0.124,0.155,0.112,0.248L7.97,23.576c-0.012,0.084-0.066,0.153-0.146,0.188c-0.08,0.033-0.176,0.031-0.256-0.014
		c-0.001-0.001-0.119-0.063-0.319-0.146c-0.879-0.356-3.089-0.987-4.633,0.87c-0.068,0.082-0.188,0.114-0.299,0.077
		c-0.007,0-0.014-0.005-0.021-0.008c-0.1-0.041-0.171-0.129-0.181-0.229C1.617,19.234,4.287,15.66,5.357,14.712"/>
	<g opacity="0.3">
		<g>
			<defs>
				
					<rect id="SVGID_1_" x="5.741" y="25.59" transform="matrix(-0.9263 -0.3767 0.3767 -0.9263 5.2223 63.8044)" width="6.217" height="11.603"/>
			</defs>
			<clipPath id="SVGID_2_">
				<use xlink:href="#SVGID_1_"  overflow="visible"/>
			</clipPath>
			<g clip-path="url(#SVGID_2_)">
				<defs>
					
						<rect id="SVGID_3_" x="5.741" y="25.59" transform="matrix(0.9263 0.3767 -0.3767 0.9263 12.4778 -1.0211)" width="6.216" height="11.602"/>
				</defs>
				<clipPath id="SVGID_4_">
					<use xlink:href="#SVGID_3_"  overflow="visible"/>
				</clipPath>
				<defs>
					<filter id="Adobe_OpacityMaskFilter" filterUnits="userSpaceOnUse" x="3.786" y="24.847" width="10.128" height="13.09">
						<feColorMatrix  type="matrix" values="1 0 0 0 0  0 1 0 0 0  0 0 1 0 0  0 0 0 1 0"/>
					</filter>
				</defs>
				<mask maskUnits="userSpaceOnUse" x="3.786" y="24.847" width="10.128" height="13.09" id="SVGID_5_">
					<g filter="url(#Adobe_OpacityMaskFilter)">
						
							<linearGradient id="SVGID_6_" gradientUnits="userSpaceOnUse" x1="-307.5317" y1="316.8906" x2="-307.2559" y2="316.8906" gradientTransform="matrix(15.8496 -38.9783 -47.4809 -19.307 19927.1875 -5832.0532)">
							<stop  offset="0" style="stop-color:#000000"/>
							<stop  offset="1" style="stop-color:#FFFFFF"/>
						</linearGradient>
						<polygon clip-path="url(#SVGID_4_)" fill="url(#SVGID_6_)" points="3.786,35.595 8.155,24.847 13.914,27.188 9.544,37.937 
													"/>
					</g>
				</mask>
				
					<linearGradient id="SVGID_7_" gradientUnits="userSpaceOnUse" x1="-307.5317" y1="316.8906" x2="-307.2559" y2="316.8906" gradientTransform="matrix(15.8496 -38.9783 -47.4809 -19.307 19927.1875 -5832.0532)">
					<stop  offset="0" style="stop-color:#FFFFFF"/>
					<stop  offset="1" style="stop-color:#FFFFFF"/>
				</linearGradient>
				<polygon clip-path="url(#SVGID_4_)" mask="url(#SVGID_5_)" fill="url(#SVGID_7_)" points="3.786,35.595 8.155,24.847 
					13.914,27.188 9.544,37.937 				"/>
			</g>
		</g>
	</g>
	<path fill="#BD5F28" d="M14.612,26.576c-0.042-0.068-0.113-0.118-0.195-0.137c-0.667-0.141-1.752-0.431-3.148-0.998
		c-1.396-0.567-2.375-1.118-2.951-1.482c-0.071-0.045-0.158-0.059-0.236-0.037c-0.08,0.021-0.142,0.072-0.17,0.144l-0.521,1.281
		c-0.048,0.116,0.005,0.254,0.124,0.323c0.066,0.039,1.637,0.955,3.039,1.526c1.403,0.569,3.168,1.01,3.243,1.028
		c0.134,0.032,0.268-0.028,0.315-0.145l0.521-1.281C14.662,26.729,14.655,26.647,14.612,26.576"/>
	<g opacity="0.2">
		<g>
			<defs>
				
					<rect id="SVGID_8_" x="7.575" y="25.087" transform="matrix(-0.9263 -0.3767 0.3767 -0.9263 11.9373 53.5393)" width="7.257" height="1.032"/>
			</defs>
			<clipPath id="SVGID_9_">
				<use xlink:href="#SVGID_8_"  overflow="visible"/>
			</clipPath>
			<path clip-path="url(#SVGID_9_)" fill="#231F20" d="M14.641,26.507c-0.042-0.071-0.113-0.121-0.195-0.138
				c-0.666-0.143-1.751-0.43-3.148-0.997c-1.396-0.569-2.375-1.119-2.95-1.483c-0.071-0.047-0.158-0.06-0.236-0.037
				c-0.08,0.019-0.142,0.073-0.17,0.143l-0.288,0.71c0.028-0.071,0.09-0.124,0.169-0.144c0.079-0.021,0.166-0.008,0.236,0.037
				c0.575,0.364,1.554,0.916,2.95,1.484c1.397,0.567,2.483,0.854,3.148,0.996c0.083,0.018,0.155,0.068,0.196,0.139
				c0.042,0.068,0.05,0.149,0.021,0.221l0.289-0.709C14.691,26.656,14.684,26.575,14.641,26.507"/>
		</g>
	</g>
	<path fill="#F37C20" d="M21.432,0.447c-1.28-0.52-9.002,3.426-11.916,10.59c-2.826,6.95-2.321,12.347-2.317,12.403
		c0.006,0.069,0.041,0.138,0.1,0.187c0.05,0.04,1.258,1.041,3.856,2.096c2.596,1.058,4.158,1.185,4.225,1.189
		c0.075,0.007,0.147-0.019,0.201-0.064c0.042-0.036,4.17-3.551,6.996-10.499C25.491,9.184,22.712,0.968,21.432,0.447"/>
	<path fill="#BD5F28" d="M23.603,6.068c-0.496-3.104-1.51-5.352-2.171-5.621c-0.66-0.269-2.956,0.633-5.477,2.512
		c0.382,0.288,1.521,1.077,3.664,1.947C21.762,5.777,23.128,6.008,23.603,6.068"/>
	<path fill="#FFFFFF" d="M16.11,13.537c-1.114-0.454-1.686-1.643-1.276-2.653c0.411-1.009,1.651-1.462,2.765-1.009
		s1.688,1.643,1.276,2.653C18.465,13.537,17.224,13.99,16.11,13.537"/>
	<path fill="#E57025" d="M17.548,9.999c1.04,0.423,1.573,1.53,1.19,2.473c-0.383,0.943-1.538,1.364-2.578,0.941
		c-1.04-0.424-1.573-1.529-1.189-2.473C15.354,9.997,16.508,9.576,17.548,9.999 M17.649,9.75c-1.189-0.484-2.514,0-2.953,1.078
		c-0.438,1.078,0.172,2.349,1.363,2.832c1.189,0.484,2.514,0,2.952-1.078C19.45,11.505,18.839,10.234,17.649,9.75"/>
	<path fill="#FFFFFF" d="M13.909,18.95c-0.754-0.309-1.142-1.114-0.864-1.797c0.278-0.684,1.118-0.991,1.872-0.684
		c0.755,0.307,1.143,1.111,0.864,1.795C15.503,18.95,14.663,19.256,13.909,18.95"/>
	<path fill="#E57025" d="M14.867,16.594c0.68,0.275,1.028,1,0.777,1.617c-0.25,0.615-1.005,0.89-1.685,0.614
		c-0.681-0.276-1.029-1-0.778-1.617C13.433,16.592,14.187,16.316,14.867,16.594 M14.968,16.345c-0.831-0.337-1.754,0-2.06,0.751
		c-0.306,0.753,0.12,1.638,0.95,1.976c0.831,0.338,1.754,0.001,2.06-0.752C16.224,17.568,15.798,16.684,14.968,16.345"/>
	<path fill="#E7E6E6" d="M15.202,11.42c0.383-0.943,1.537-1.365,2.578-0.941c0.426,0.173,0.766,0.463,0.993,0.808
		c-0.176-0.551-0.611-1.039-1.224-1.288c-1.041-0.423-2.195-0.002-2.578,0.94c-0.226,0.556-0.132,1.169,0.195,1.665
		C15.043,12.22,15.044,11.807,15.202,11.42"/>
	<path fill="#E7E6E6" d="M13.414,17.688c0.25-0.617,1.004-0.892,1.685-0.615c0.246,0.1,0.447,0.26,0.593,0.451
		c-0.095-0.396-0.391-0.755-0.824-0.931c-0.68-0.277-1.435-0.002-1.685,0.615c-0.16,0.393-0.075,0.828,0.184,1.165
		C13.312,18.148,13.322,17.911,13.414,17.688"/>
	<path fill="#F37C20" d="M22.941,21.861c-0.103-1.404-1.245-3.812-1.293-3.914c-0.042-0.088-0.131-0.151-0.231-0.166
		c-0.102-0.013-0.199,0.025-0.254,0.102l-6.278,8.506c-0.05,0.067-0.06,0.154-0.026,0.235c0.033,0.08,0.105,0.144,0.194,0.168
		c0.001,0,0.128,0.039,0.329,0.119c0.878,0.357,2.901,1.447,2.71,3.856c-0.008,0.107,0.056,0.212,0.16,0.264
		c0.007,0.004,0.014,0.007,0.022,0.009c0.099,0.041,0.212,0.027,0.291-0.038C22.463,27.711,23.045,23.289,22.941,21.861"/>
	<path fill="#F69438" d="M23.814,7.937c0.064,2.384-1.218,6.875-2.927,9.595c0.3,0.66,1.094,2.506,1.18,3.669
		c0.1,1.378-0.44,5.551-3.992,8.799c0.031,0.243,0.042,0.499,0.02,0.776c-0.009,0.106,0.055,0.211,0.16,0.264
		c0.007,0.003,0.014,0.005,0.021,0.009c0.1,0.042,0.213,0.026,0.29-0.037c3.901-3.292,4.484-7.716,4.379-9.142
		c-0.085-1.162-0.881-3.009-1.181-3.669c0.28-0.585,0.555-1.201,0.816-1.845C23.729,13.535,23.993,10.55,23.814,7.937"/>
	<g opacity="0.2">
		<g>
			<defs>
				
					<rect id="SVGID_10_" x="9.47" y="-1.454" transform="matrix(-0.9263 -0.3767 0.3767 -0.9263 22.6489 28.5518)" width="9.292" height="27.03"/>
			</defs>
			<clipPath id="SVGID_11_">
				<use xlink:href="#SVGID_10_"  overflow="visible"/>
			</clipPath>
			<path clip-path="url(#SVGID_11_)" fill="#231F20" d="M10.539,13.162c2.913-7.164,10.636-11.111,11.916-10.59
				c0.121,0.049,0.254,0.167,0.396,0.344c-0.472-1.395-1.018-2.306-1.417-2.469c-1.28-0.52-9.002,3.426-11.916,10.59
				c-2.826,6.95-2.322,12.347-2.317,12.403c0.006,0.069,0.041,0.138,0.1,0.187c0.024,0.02,0.313,0.259,0.886,0.613
				C8.207,22.22,8.538,18.08,10.539,13.162"/>
		</g>
	</g>
</g>
<text transform="matrix(1 0 0 1 34.3652 22.5518)"><tspan x="0" y="0" fill="#F37C20" font-family="'CenturyGothic-BoldItalic'" font-size="19.5979" letter-spacing="-1">In</tspan><tspan x="14.892" y="0" fill="#F37C20" font-family="'CenturyGothic-BoldItalic'" font-size="19.5979">b</tspan><tspan x="27.046" y="0" fill="#F37C20" font-family="'CenturyGothic-BoldItalic'" font-size="19.5979" letter-spacing="-1">o</tspan><tspan x="38.416" y="0" fill="#F37C20" font-family="'CenturyGothic-BoldItalic'" font-size="19.5979">u</tspan><tspan x="49.392" y="0" fill="#F37C20" font-family="'CenturyGothic-BoldItalic'" font-size="19.5979" letter-spacing="-1">nd</tspan><tspan x="71.738" y="0" fill="#FF854F" font-family="'CenturyGothic-BoldItalic'" font-size="19.5979"> </tspan><tspan x="77.222" y="0" fill="#007B9A" font-family="'CenturyGothic-BoldItalic'" font-size="19.5979">Roc</tspan><tspan x="111.329" y="0" fill="#007B9A" font-family="'CenturyGothic-BoldItalic'" font-size="19.5979" letter-spacing="-1">k</tspan><tspan x="121.521" y="0" fill="#007B9A" font-family="'CenturyGothic-BoldItalic'" font-size="19.5979">et</tspan></text>
</svg>
