<?xml version="1.0" encoding="utf-8"?>
<!-- Generator: Adobe Illustrator 16.0.0, SVG Export Plug-In . SVG Version: 6.00 Build 0)  -->
<!DOCTYPE svg PUBLIC "-//W3C//DTD SVG 1.1//EN" "http://www.w3.org/Graphics/SVG/1.1/DTD/svg11.dtd">
<svg version="1.1" id="Layer_1" xmlns="http://www.w3.org/2000/svg" xmlns:xlink="http://www.w3.org/1999/xlink" x="0px" y="0px"
	 width="145px" height="250px" viewBox="0 0 145 250" enable-background="new 0 0 145 250" xml:space="preserve">
<g>
	<defs>
		<polygon id="SVGID_1_" points="0,600 800,600 800,0 -13,1 		"/>
	</defs>
	<clipPath id="SVGID_2_">
		<use xlink:href="#SVGID_1_"  overflow="visible"/>
	</clipPath>
	<g clip-path="url(#SVGID_2_)">
		<defs>
			<polygon id="SVGID_3_" points="-13,1 800,0 800,600 0,600 			"/>
		</defs>
		<clipPath id="SVGID_4_">
			<use xlink:href="#SVGID_3_"  overflow="visible"/>
		</clipPath>
		<path clip-path="url(#SVGID_4_)" fill="#E67000" d="M8.126,144.732c4.222-9.415,17.499-22.846,18.062-23.413
			c0.489-0.495,1.206-0.677,1.874-0.492c0.666,0.189,1.177,0.725,1.334,1.402l17.657,76.414c0.14,0.604-0.023,1.237-0.436,1.695
			c-0.412,0.467-1.023,0.707-1.638,0.625c-0.007,0-0.903-0.101-2.363-0.101c-6.41,0-21.854,1.854-26.794,19.029
			c-0.22,0.762-0.885,1.31-1.675,1.374c-0.052,0.002-0.105,0.002-0.157,0.002c-0.727,0-1.4-0.415-1.718-1.083
			C-3.775,186.49,3.839,154.294,8.126,144.732"/>
		<g opacity="0.3" clip-path="url(#SVGID_4_)">
			<g>
				<defs>
					<rect id="SVGID_5_" x="51.454" y="206.896" width="42.022" height="86.543"/>
				</defs>
				<clipPath id="SVGID_6_">
					<use xlink:href="#SVGID_5_"  overflow="visible"/>
				</clipPath>
				<g clip-path="url(#SVGID_6_)">
					<defs>
						<rect id="SVGID_7_" x="51.455" y="206.896" width="42.021" height="86.543"/>
					</defs>
					<clipPath id="SVGID_8_">
						<use xlink:href="#SVGID_7_"  overflow="visible"/>
					</clipPath>
					<defs>
						<filter id="Adobe_OpacityMaskFilter" filterUnits="userSpaceOnUse" x="51.455" y="206.896" width="42.021" height="86.543">
							<feColorMatrix  type="matrix" values="1 0 0 0 0  0 1 0 0 0  0 0 1 0 0  0 0 0 1 0"/>
						</filter>
					</defs>
					<mask maskUnits="userSpaceOnUse" x="51.455" y="206.896" width="42.021" height="86.543" id="SVGID_9_">
						<g filter="url(#Adobe_OpacityMaskFilter)">
							
								<linearGradient id="SVGID_10_" gradientUnits="userSpaceOnUse" x1="1.1831" y1="603.7969" x2="2.1831" y2="603.7969" gradientTransform="matrix(0 -86.543 -86.543 0 52326.9297 395.8125)">
								<stop  offset="0" style="stop-color:#000000"/>
								<stop  offset="1" style="stop-color:#FFFFFF"/>
							</linearGradient>
							<rect x="51.455" y="206.896" clip-path="url(#SVGID_8_)" fill="url(#SVGID_10_)" width="42.021" height="86.543"/>
						</g>
					</mask>
					
						<linearGradient id="SVGID_11_" gradientUnits="userSpaceOnUse" x1="1.1831" y1="603.7969" x2="2.1831" y2="603.7969" gradientTransform="matrix(0 -86.543 -86.543 0 52326.9297 395.8125)">
						<stop  offset="0" style="stop-color:#FFFFFF"/>
						<stop  offset="1" style="stop-color:#FFFFFF"/>
					</linearGradient>
					
						<rect x="51.455" y="206.896" clip-path="url(#SVGID_8_)" mask="url(#SVGID_9_)" fill="url(#SVGID_11_)" width="42.021" height="86.543"/>
				</g>
			</g>
		</g>
		<path clip-path="url(#SVGID_4_)" fill="#BF5D00" d="M96.291,200.71c-0.439-0.361-1.014-0.51-1.575-0.399
			c-4.53,0.892-12.062,1.95-22.251,1.95c-10.189,0-17.724-1.059-22.25-1.95c-0.559-0.11-1.136,0.034-1.577,0.399
			c-0.441,0.364-0.696,0.902-0.696,1.469v10.318c0,0.938,0.68,1.734,1.604,1.881c0.513,0.082,12.685,2.011,22.919,2.011
			c10.232,0,22.404-1.929,22.919-2.011c0.922-0.146,1.604-0.943,1.604-1.881v-10.318C96.988,201.612,96.733,201.074,96.291,200.71"
			/>
		<g opacity="0.2" clip-path="url(#SVGID_4_)">
			<g>
				<defs>
					<rect id="SVGID_12_" x="47.942" y="199.702" width="49.046" height="7.703"/>
				</defs>
				<clipPath id="SVGID_13_">
					<use xlink:href="#SVGID_12_"  overflow="visible"/>
				</clipPath>
				<path clip-path="url(#SVGID_13_)" fill="#231F20" d="M96.291,200.138c-0.439-0.36-1.014-0.51-1.575-0.397
					c-4.53,0.892-12.062,1.952-22.251,1.952c-10.189,0-17.724-1.061-22.25-1.952c-0.559-0.114-1.136,0.037-1.577,0.397
					c-0.441,0.363-0.696,0.903-0.696,1.47v5.718c0-0.572,0.255-1.111,0.696-1.471c0.441-0.364,1.018-0.515,1.577-0.401
					c4.526,0.892,12.061,1.952,22.25,1.952c10.188,0,17.721-1.061,22.251-1.952c0.562-0.11,1.136,0.039,1.575,0.401
					c0.442,0.359,0.697,0.898,0.697,1.471v-5.718C96.988,201.041,96.733,200.501,96.291,200.138"/>
			</g>
		</g>
		<path clip-path="url(#SVGID_4_)" fill="#FF7C00" d="M72.465,1c-9.34,0-47.653,48.961-47.653,106.655
			c0,55.951,16.9,91.826,17.071,92.204c0.214,0.468,0.61,0.835,1.099,1.004c0.419,0.149,10.525,3.65,29.483,3.65
			c18.955,0,29.062-3.501,29.485-3.65c0.485-0.169,0.884-0.536,1.095-1.004c0.173-0.378,17.072-36.253,17.072-92.204
			C120.117,49.961,81.804,1,72.465,1"/>
		<path clip-path="url(#SVGID_4_)" fill="#BF5D00" d="M100.367,33.742C89.362,13.684,77.283,1,72.465,1
			c-4.821,0-16.897,12.684-27.903,32.742c3.126,0.92,12.267,3.163,27.903,3.163S97.242,34.662,100.367,33.742"/>
		<path clip-path="url(#SVGID_4_)" fill="#FFFFFF" d="M72.465,106.4c-8.13,0-14.745-6.614-14.745-14.744
			c0-8.131,6.615-14.745,14.745-14.745s14.743,6.614,14.743,14.745C87.208,99.786,80.595,106.4,72.465,106.4"/>
		<path clip-path="url(#SVGID_4_)" fill="#E66E00" d="M72.465,77.911c7.59,0,13.743,6.153,13.743,13.746
			c0,7.589-6.153,13.743-13.743,13.743c-7.592,0-13.745-6.154-13.745-13.743C58.72,84.064,64.873,77.911,72.465,77.911
			 M72.465,75.911c-8.682,0-15.745,7.063-15.745,15.746c0,8.681,7.063,15.743,15.745,15.743c8.681,0,15.743-7.062,15.743-15.743
			C88.208,82.974,81.146,75.911,72.465,75.911"/>
		<path clip-path="url(#SVGID_4_)" fill="#FFFFFF" d="M72.465,149.979c-5.506,0-9.985-4.479-9.985-9.983
			c0-5.506,4.479-9.985,9.985-9.985c5.505,0,9.983,4.479,9.983,9.985C82.448,145.5,77.97,149.979,72.465,149.979"/>
		<path clip-path="url(#SVGID_4_)" fill="#E66E00" d="M72.465,131.011c4.963,0,8.983,4.023,8.983,8.985
			c0,4.962-4.021,8.983-8.983,8.983c-4.962,0-8.985-4.021-8.985-8.983C63.48,135.034,67.503,131.011,72.465,131.011 M72.465,129.011
			c-6.057,0-10.985,4.928-10.985,10.985c0,6.057,4.928,10.983,10.985,10.983c6.057,0,10.983-4.926,10.983-10.983
			C83.448,133.939,78.521,129.011,72.465,129.011"/>
		<path clip-path="url(#SVGID_4_)" fill="#E6E7E8" d="M61.387,94.323c0-7.592,6.153-13.746,13.744-13.746
			c3.115,0,5.976,1.048,8.282,2.794c-2.511-3.312-6.474-5.46-10.948-5.46c-7.592,0-13.745,6.154-13.745,13.746
			c0,4.475,2.149,8.44,5.463,10.95C62.435,100.302,61.387,97.438,61.387,94.323"/>
		<path clip-path="url(#SVGID_4_)" fill="#E6E7E8" d="M66.147,142.662c0-4.962,4.023-8.985,8.984-8.985
			c1.797,0,3.464,0.54,4.866,1.448c-1.6-2.471-4.369-4.114-7.532-4.114c-4.962,0-8.985,4.023-8.985,8.985
			c0,3.163,1.645,5.935,4.118,7.535C66.688,146.125,66.147,144.461,66.147,142.662"/>
		<path clip-path="url(#SVGID_4_)" fill="#FF7C00" d="M136.438,144.732c-4.22-9.415-17.497-22.846-18.062-23.413
			c-0.486-0.495-1.205-0.677-1.872-0.492c-0.666,0.189-1.177,0.725-1.333,1.402l-17.658,76.414c-0.14,0.604,0.023,1.237,0.437,1.695
			c0.411,0.467,1.023,0.707,1.639,0.625c0.009,0,0.902-0.101,2.363-0.101c6.408,0,21.852,1.854,26.795,19.029
			c0.216,0.762,0.884,1.31,1.671,1.374c0.053,0.002,0.106,0.002,0.159,0.002c0.729,0,1.397-0.415,1.72-1.083
			C148.339,186.49,140.725,154.294,136.438,144.732"/>
		<path clip-path="url(#SVGID_4_)" fill="#FF9633" d="M106.448,46.061c6.474,16.294,9.882,50.928,6.101,74.519
			c3.558,3.721,13.237,14.248,16.731,22.039c4.141,9.24,11.382,39.592-2.592,72.017c0.814,1.587,1.531,3.333,2.102,5.303
			c0.219,0.762,0.884,1.309,1.675,1.374c0.053,0.005,0.103,0.005,0.155,0.005c0.729,0,1.4-0.418,1.718-1.086
			c16.048-33.695,8.436-65.892,4.146-75.456c-3.492-7.791-13.177-18.316-16.731-22.039c0.265-4.832,0.413-9.847,0.413-15.035
			C120.165,84.982,114.224,63.616,106.448,46.061"/>
		<g opacity="0.2" clip-path="url(#SVGID_4_)">
			<g>
				<defs>
					<rect id="SVGID_14_" x="24.812" y="1" width="62.813" height="201.614"/>
				</defs>
				<clipPath id="SVGID_15_">
					<use xlink:href="#SVGID_14_"  overflow="visible"/>
				</clipPath>
				<path clip-path="url(#SVGID_15_)" fill="#231F20" d="M36.622,119.465c0-57.692,38.313-106.656,47.654-106.656
					c0.876,0,2.015,0.438,3.35,1.269C81.114,5.768,75.379,1,72.465,1c-9.34,0-47.653,48.961-47.653,106.655
					c0,55.951,16.9,91.826,17.071,92.204c0.214,0.468,0.61,0.835,1.099,1.004c0.201,0.071,2.617,0.9,7.112,1.751
					C45.085,188.599,36.622,159.071,36.622,119.465"/>
			</g>
		</g>
	</g>
</g>
</svg>
